<mxfile host="app.diagrams.net" modified="2020-04-20T13:24:23.613Z" agent="5.0 (Windows NT 10.0; Win64; x64) AppleWebKit/537.36 (KHTML, like Gecko) Chrome/81.0.4044.113 Safari/537.36" etag="_ykwihEhCKfVAa-7D4Xb" version="12.9.14" type="github">
  <diagram id="eSjlhX7hOC1efUtO4MjE" name="Page-1">
    <mxGraphModel dx="1422" dy="723" grid="1" gridSize="10" guides="1" tooltips="1" connect="1" arrows="1" fold="1" page="1" pageScale="1" pageWidth="827" pageHeight="1169" math="0" shadow="0">
      <root>
        <mxCell id="0" />
        <mxCell id="1" parent="0" />
        <UserObject label="diagram net" link="https://www.diagrams.net/index.html" id="4Wva1iSWS1tGQk8GtQKy-1">
          <mxCell style="ellipse;shape=cloud;whiteSpace=wrap;html=1;" vertex="1" parent="1">
            <mxGeometry x="280" y="120" width="120" height="80" as="geometry" />
          </mxCell>
        </UserObject>
      </root>
    </mxGraphModel>
  </diagram>
</mxfile>
